<svg width="189" height="40" viewBox="0 0 189 40" fill="none" xmlns="http://www.w3.org/2000/svg">
<g clip-path="url(#clip0_117_1791)">
<mask id="mask0_117_1791" style="mask-type:luminance" maskUnits="userSpaceOnUse" x="0" y="0" width="40" height="40">
<path d="M39.69 0.199951H0V39.89H39.69V0.199951Z" fill="white"/>
</mask>
<g mask="url(#mask0_117_1791)">
<path d="M19.845 39.4141C30.5422 39.4141 39.214 30.7423 39.214 20.045C39.214 9.34776 30.5422 0.675903 19.845 0.675903C9.14768 0.675903 0.47583 9.34776 0.47583 20.045C0.47583 30.7423 9.14768 39.4141 19.845 39.4141Z" stroke="black" stroke-width="0.9518" stroke-miterlimit="10"/>
<path d="M19.8449 36.3742C28.8633 36.3742 36.174 29.0635 36.174 20.0451C36.174 11.0268 28.8633 3.71606 19.8449 3.71606C10.8266 3.71606 3.51587 11.0268 3.51587 20.0451C3.51587 29.0635 10.8266 36.3742 19.8449 36.3742Z" fill="black"/>
<mask id="mask1_117_1791" style="mask-type:alpha" maskUnits="userSpaceOnUse" x="3" y="3" width="34" height="34">
<path d="M19.8449 36.3742C28.8633 36.3742 36.174 29.0635 36.174 20.0451C36.174 11.0268 28.8633 3.71606 19.8449 3.71606C10.8266 3.71606 3.51587 11.0268 3.51587 20.0451C3.51587 29.0635 10.8266 36.3742 19.8449 36.3742Z" fill="black"/>
</mask>
<g mask="url(#mask1_117_1791)">
<path d="M13.7087 20.6268L16.9562 21.7148V24.375L11.9564 25.4591L9.32656 32.707H4.06787L14.5862 3.71619H19.8449L13.7087 20.6268Z" fill="#CC4400"/>
<path d="M16.9608 21.7137C17.313 21.8307 17.6366 22.0212 17.9803 22.1506L18.281 22.261L18.3277 22.2781C18.3153 22.2981 18.3049 22.3143 18.2934 22.3295C18.1383 22.5726 18.012 22.8329 17.9174 23.1053C17.8423 23.3156 17.7556 23.525 17.6805 23.7363C17.6547 23.82 17.6337 23.9052 17.6176 23.9914L17.8127 24.0285C17.7956 24.0742 17.7823 24.118 17.7632 24.157C17.7032 24.2871 17.6166 24.4031 17.5091 24.4977L17.4929 24.5139C17.4358 24.573 17.4358 24.572 17.3615 24.5405C17.2369 24.4863 17.1112 24.434 16.9856 24.3816L16.96 24.374L16.9608 21.7137Z" fill="#CC4400"/>
<path d="M19.1586 24.6996C19.1825 24.6507 19.1909 24.5955 19.1824 24.5416C19.174 24.488 19.149 24.4384 19.111 24.3998C19.0799 24.3676 19.0392 24.3463 18.995 24.3389C18.9508 24.3315 18.9053 24.3385 18.8654 24.3589C18.8284 24.2732 18.7903 24.1847 18.6894 24.1685C18.6444 24.1582 18.5974 24.1607 18.5538 24.1759C18.5102 24.191 18.4717 24.2182 18.4429 24.2542C18.4031 24.2197 18.3611 24.188 18.3172 24.1589C18.2606 24.1264 18.2021 24.0972 18.1421 24.0714C18.1271 24.0731 18.1134 24.0806 18.104 24.0924C18.0859 24.1285 18.0536 24.1333 18.0088 24.1447V24.101C18.0126 23.9722 18.0318 23.8444 18.066 23.7202C18.1213 23.4533 18.1922 23.1898 18.2781 22.9312C18.3039 22.856 18.3286 22.7808 18.3534 22.7141L18.7721 22.7389C18.7351 22.7732 18.7027 22.8074 18.6656 22.8341C18.6285 22.8607 18.578 22.8912 18.5352 22.9217C18.5017 22.9419 18.4776 22.9743 18.4676 23.0121C18.4576 23.0498 18.4623 23.09 18.4809 23.1244C18.502 23.1616 18.5359 23.19 18.5761 23.2043C18.6157 23.2191 18.6593 23.2191 18.6989 23.2043C18.8441 23.1549 18.9841 23.0911 19.1167 23.014C19.1919 22.9692 19.2766 22.9293 19.3585 22.8912C19.4064 22.8668 19.4594 22.8541 19.5131 22.8541C19.5669 22.8541 19.6199 22.8668 19.6678 22.8912C19.7325 22.9226 19.7963 22.955 19.8581 22.9921C19.9382 23.0407 20.0161 23.0939 20.0952 23.1424C20.3693 23.3195 20.6463 23.4937 20.9214 23.6755C21.004 23.7364 21.0797 23.8063 21.1469 23.8839C21.1804 23.9205 21.2061 23.9634 21.2225 24.0103C21.2388 24.057 21.2455 24.1066 21.2421 24.1561C21.2402 24.1955 21.2298 24.2339 21.2115 24.2687C21.1933 24.3036 21.1677 24.334 21.1365 24.3579C21.1178 24.3687 21.0955 24.3719 21.0746 24.3665C20.9434 24.3386 20.8219 24.2765 20.7224 24.1866C20.5978 24.076 20.4608 23.9802 20.3141 23.901L20.297 23.8925L20.2512 23.9486L20.237 23.942C20.2608 23.9601 20.2826 23.9791 20.3074 23.9943C20.3721 24.0362 20.4416 24.0696 20.5035 24.1162C20.5557 24.1592 20.6044 24.2062 20.6491 24.257C20.6669 24.2808 20.6829 24.306 20.6967 24.3323C20.7291 24.3778 20.7471 24.4323 20.7481 24.4883C20.7487 24.5443 20.7328 24.5992 20.7024 24.6463C20.6807 24.6832 20.6471 24.7118 20.6072 24.7272C20.5662 24.7417 20.5217 24.7417 20.4807 24.7272C20.3917 24.7092 20.31 24.6654 20.2456 24.6016C20.1703 24.5264 20.0894 24.4512 20.0095 24.3817C19.9752 24.3522 19.9344 24.3275 19.8972 24.297L19.8781 24.3285C19.9924 24.4341 20.1038 24.5368 20.2141 24.6369C20.2557 24.6745 20.3021 24.7066 20.3521 24.732C20.3592 24.7348 20.3657 24.7391 20.3712 24.7444C20.3769 24.7495 20.3812 24.756 20.3836 24.7634C20.385 24.7706 20.385 24.7781 20.3836 24.7853C20.3827 24.7928 20.3807 24.8002 20.3779 24.8071C20.3715 24.8368 20.3583 24.8645 20.3395 24.8884C20.3207 24.9121 20.2967 24.9312 20.2694 24.9443C20.2418 24.9576 20.2114 24.9642 20.1809 24.9633C20.1506 24.9633 20.1208 24.9557 20.0942 24.9413C20.0113 24.9121 19.9347 24.8672 19.8687 24.8091C19.8125 24.7577 19.7497 24.7138 19.6907 24.6673C19.6421 24.6322 19.583 24.6148 19.5231 24.6177L19.5165 24.6567C19.5165 24.6567 19.5222 24.6635 19.5251 24.6635C19.6 24.6671 19.671 24.698 19.7249 24.75C19.7878 24.8033 19.8525 24.8548 19.9153 24.9071C19.941 24.929 19.9267 25.008 19.8925 25.026C19.8578 25.05 19.8165 25.0622 19.7744 25.0613C19.7321 25.0598 19.6914 25.0448 19.6583 25.0184C19.635 24.9997 19.6099 24.9834 19.5831 24.9699C19.5717 24.9633 19.5555 24.9557 19.5459 24.9605C19.5146 24.9766 19.4974 24.9605 19.4812 24.9375C19.427 24.869 19.3747 24.7987 19.3185 24.731C19.3065 24.7159 19.2891 24.706 19.27 24.7034C19.2291 24.7034 19.1881 24.7034 19.1482 24.7034L19.1586 24.6996Z" fill="#CC4400"/>
<path d="M25.9813 20.6269L22.7346 21.7149V24.3971L27.7345 25.4592L30.3642 32.7072H35.622L25.1028 3.71631H19.845L25.9813 20.6269Z" fill="#CC4400"/>
<path d="M22.7222 21.7137C22.3701 21.8307 22.0465 22.0212 21.7029 22.1506L21.4021 22.261L21.3555 22.2781L21.3897 22.3295C21.5448 22.5725 21.6706 22.8329 21.7648 23.1053C21.8437 23.3156 21.9275 23.525 22.0027 23.7363C22.0277 23.8203 22.0484 23.9053 22.0646 23.9914L21.8742 24.0285C21.8913 24.0742 21.9046 24.118 21.9237 24.157C21.9845 24.2869 22.0713 24.4028 22.1787 24.4977C22.1846 24.5026 22.19 24.508 22.1949 24.5139C22.252 24.573 22.2512 24.572 22.3253 24.5405C22.451 24.4863 22.5766 24.434 22.706 24.3816L22.7318 24.374L22.7222 21.7137Z" fill="#CC4400"/>
<path d="M21.2116 22.4305C21.2145 22.4515 21.2193 22.4722 21.2259 22.4924C21.2582 22.5932 21.2944 22.6951 21.3267 22.7922C21.4152 23.0777 21.4771 23.3633 21.5428 23.6487C21.5438 23.6535 21.5438 23.6584 21.5428 23.6632C21.5418 23.6679 21.5399 23.6724 21.5371 23.6764L21.2925 23.8952C21.2894 23.8993 21.2854 23.9024 21.2808 23.9047C21.2764 23.9069 21.2714 23.908 21.2664 23.908C21.2613 23.908 21.2563 23.9069 21.2518 23.9047C21.2472 23.9024 21.2432 23.8993 21.2402 23.8952C21.1725 23.8201 21.105 23.7526 21.0365 23.684C21.0026 23.6524 20.9656 23.6244 20.926 23.6002C20.6909 23.4404 20.4502 23.2824 20.2169 23.1244C20.1218 23.0587 20.019 22.9911 19.92 22.9264C19.8791 22.8988 19.8353 22.8749 19.7915 22.8511C19.7316 22.8144 19.6637 22.7927 19.5935 22.7884C19.5233 22.784 19.4531 22.7968 19.3889 22.8255C19.2804 22.8759 19.1748 22.9282 19.0701 22.9835C18.9466 23.0552 18.8166 23.1148 18.6817 23.1615C18.6629 23.1686 18.6427 23.1713 18.6227 23.1691C18.6028 23.1661 18.5838 23.1586 18.5672 23.147C18.5507 23.1355 18.5371 23.1202 18.5276 23.1024C18.5184 23.0845 18.5139 23.0646 18.5142 23.0444C18.5157 23.0214 18.5255 22.9998 18.5418 22.9835C18.5795 22.9493 18.6207 22.919 18.6646 22.8931C18.7314 22.8538 18.7871 22.7981 18.8264 22.7313C18.8559 22.6855 18.8844 22.636 18.9139 22.5923C18.9525 22.5334 19.0121 22.4915 19.0805 22.4752C19.2415 22.4351 19.3976 22.3772 19.5459 22.303C19.6468 22.2569 19.7606 22.2474 19.8677 22.2763C20.0581 22.3182 20.255 22.3629 20.4482 22.4067C20.5435 22.4295 20.6481 22.4486 20.749 22.4752C20.9036 22.5163 21.0678 22.5004 21.2116 22.4305Z" fill="#CC4400"/>
<path d="M18.8425 24.4236C18.9178 24.3808 19.0063 24.3522 19.0767 24.4302C19.097 24.4511 19.1132 24.4757 19.1243 24.5025C19.135 24.5295 19.1402 24.5583 19.1395 24.5873C19.1391 24.6164 19.1319 24.6451 19.1185 24.6711C19.1066 24.6978 19.0886 24.7215 19.0662 24.7406H19.1375C19.2007 24.7395 19.2627 24.7574 19.3156 24.7919C19.3276 24.8 19.3382 24.81 19.347 24.8215L19.4793 24.9937C19.4428 25.0185 19.4011 25.0348 19.3574 25.0414C19.3141 25.049 19.2696 25.047 19.227 25.0356C19.2138 25.0356 19.2024 25.0146 19.1928 25.0013C19.1676 24.9637 19.1353 24.9314 19.0976 24.9062C19.0609 24.8809 19.0195 24.863 18.9757 24.8538L18.914 24.8405C18.8706 24.8322 18.8317 24.8086 18.8045 24.7739C18.7767 24.7391 18.7625 24.6955 18.7645 24.6511C18.7651 24.6275 18.7632 24.6038 18.7588 24.5806C18.7312 24.6006 18.7093 24.6159 18.6883 24.6329C18.6788 24.6428 18.6665 24.6498 18.6531 24.6529C18.6401 24.6567 18.6263 24.6567 18.6132 24.6529C18.5636 24.6337 18.5153 24.6114 18.4685 24.5864C18.4601 24.5796 18.4532 24.5713 18.4485 24.5616C18.4436 24.5519 18.441 24.5411 18.4409 24.5302C18.4324 24.4741 18.4286 24.417 18.4228 24.3579L18.3962 24.3665C18.3584 24.3817 18.3175 24.3873 18.2772 24.3826C18.2367 24.3781 18.198 24.3635 18.1649 24.3399C18.1583 24.3361 18.1528 24.3308 18.1487 24.3245C18.1443 24.318 18.1417 24.3105 18.1411 24.3027C18.1344 24.2456 18.1325 24.1865 18.1296 24.1285L18.1439 24.118C18.1953 24.1485 18.2506 24.1751 18.3 24.2132C18.3495 24.2514 18.3952 24.2884 18.4504 24.3293C18.455 24.3253 18.4589 24.3204 18.4618 24.3151C18.4765 24.2843 18.4997 24.2582 18.5285 24.2398C18.5568 24.2213 18.5898 24.2114 18.6236 24.2113C18.649 24.2074 18.6749 24.2115 18.6979 24.2228C18.7216 24.2334 18.7413 24.2515 18.754 24.2742C18.7871 24.3217 18.8167 24.3717 18.8425 24.4236Z" fill="#CC4400"/>
</g>
</g>
</g>
<g clip-path="url(#clip1_117_1791)">
<path d="M81.3391 11.6578V14.0111H76.2954V27.92H73.3888V14.0111H68.3452V11.6578H81.3391Z" fill="#CC4400"/>
<path d="M95.0612 24.9605V27.92H86.1126L83.2336 25.0233V11.8424H86.1749V24.9605H95.0612Z" fill="#CC4400"/>
<path d="M108.661 11.9111H102.585L96.7837 27.9202H100.099L101.36 24.4046H109.886L111.147 27.9202H114.462L108.661 11.9111ZM102.142 22.2284L105.623 12.5283L109.103 22.2284H102.142Z" fill="#CC4400"/>
<path d="M131.768 11.8146V27.92H126.625L119.088 13.5233V27.92H116.152V11.8146H121.513L128.832 25.8012V11.8146H131.768Z" fill="#CC4400"/>
<path d="M146.624 11.6578V14.0111H141.58V27.92H138.674V14.0111H133.63V11.6578H146.624Z" fill="#CC4400"/>
<path d="M148.643 11.6941V27.9201H151.556V11.6941H148.643Z" fill="#CC4400"/>
<path d="M159.101 14.4263V24.9382H169.088V27.8245H158.65L156.233 25.3945V14.5728L159.247 11.54H169.088V14.4263H159.101Z" fill="#CC4400"/>
<path d="M182.833 11.9111H176.757L170.956 27.9202H174.264L175.525 24.4046H184.051L185.312 27.9202H188.627L182.833 11.9111ZM176.315 22.2284L179.796 12.5283L183.276 22.2284H176.315Z" fill="#CC4400"/>
<path d="M53.957 21.0948L55.7919 21.7096V23.2126L52.9669 23.8249L51.4812 27.9201H48.5098L54.453 11.54H57.424L53.957 21.0948Z" fill="#CC4400"/>
<path d="M55.7953 21.7092C55.9943 21.7754 56.1771 21.8827 56.3714 21.9557L56.5411 22.0181L56.5674 22.0278C56.5602 22.0393 56.5543 22.0482 56.5479 22.0571C56.4603 22.1944 56.3892 22.3415 56.3358 22.4953C56.2933 22.6141 56.2441 22.7325 56.2017 22.8517C56.1872 22.899 56.1755 22.9472 56.1665 22.9959L56.2764 23.0167C56.2666 23.0426 56.2594 23.0672 56.2484 23.0897C56.2145 23.163 56.1656 23.2285 56.105 23.2819C56.1016 23.2847 56.0984 23.2878 56.0956 23.2912C56.0634 23.3243 56.0634 23.3239 56.0214 23.306C55.951 23.2755 55.8801 23.2462 55.8093 23.2165C55.8045 23.2147 55.7995 23.2132 55.7944 23.2123L55.7953 21.7092Z" fill="#CC4400"/>
<path d="M57.0365 23.3958C57.0503 23.3683 57.0551 23.3371 57.0503 23.3067C57.0455 23.2763 57.0313 23.2481 57.0098 23.2261C56.992 23.208 56.9691 23.1961 56.9441 23.192C56.9192 23.1878 56.8935 23.1918 56.871 23.2033C56.8502 23.1549 56.8286 23.1048 56.7713 23.0934C56.7459 23.0877 56.7194 23.0893 56.6949 23.0979C56.6703 23.1064 56.6486 23.1215 56.6321 23.1417C56.6095 23.1228 56.5858 23.1051 56.5613 23.0887C56.5294 23.0702 56.4964 23.0538 56.4625 23.0395C56.4574 23.0395 56.4438 23.0446 56.4408 23.0509C56.4307 23.0713 56.4124 23.0743 56.3899 23.0807V23.056C56.3917 22.983 56.4026 22.9104 56.4221 22.8401C56.4535 22.6894 56.4934 22.5407 56.5418 22.3946C56.5562 22.3522 56.5706 22.3098 56.5842 22.2716L56.8209 22.286C56.8001 22.3051 56.7819 22.3247 56.7607 22.3407C56.7395 22.3568 56.7115 22.373 56.6873 22.3904C56.6684 22.4017 56.6546 22.42 56.6489 22.4413C56.6432 22.4626 56.646 22.4852 56.6568 22.5045C56.6682 22.5254 56.6868 22.5416 56.7091 22.5501C56.7314 22.5587 56.756 22.559 56.7785 22.5512C56.8607 22.5223 56.9398 22.4856 57.0148 22.4413C57.0573 22.4158 57.1052 22.3933 57.151 22.3717C57.1781 22.3579 57.2081 22.3507 57.2386 22.3507C57.2691 22.3507 57.299 22.3579 57.3262 22.3717C57.3627 22.3895 57.3988 22.4077 57.4336 22.429C57.4789 22.4561 57.5226 22.4862 57.5676 22.5138C57.7225 22.6139 57.879 22.7124 58.0343 22.815C58.081 22.8493 58.1237 22.8887 58.1615 22.9325C58.181 22.953 58.1961 22.9772 58.2059 23.0037C58.2156 23.0302 58.2199 23.0584 58.2184 23.0866C58.2171 23.1088 58.211 23.1304 58.2007 23.15C58.1904 23.1697 58.1761 23.187 58.1586 23.2007C58.1479 23.2068 58.1352 23.2085 58.1233 23.2053C58.0493 23.1897 57.9807 23.1546 57.9248 23.1035C57.8541 23.0417 57.7765 22.9882 57.6936 22.944L57.6843 22.9393L57.6584 22.9707L57.6503 22.9674C57.6635 22.9775 57.6762 22.9882 57.6902 22.9971C57.7267 23.0204 57.7661 23.0395 57.8009 23.0658C57.8304 23.09 57.8579 23.1166 57.8832 23.1451C57.8932 23.1586 57.9021 23.1728 57.91 23.1876C57.9283 23.2133 57.9384 23.2441 57.939 23.2757C57.9396 23.3073 57.9307 23.3384 57.9134 23.3648C57.9008 23.3861 57.8812 23.4023 57.858 23.4108C57.8349 23.4193 57.8094 23.4196 57.7861 23.4115C57.7359 23.401 57.6898 23.3762 57.6533 23.3403C57.6109 23.2978 57.565 23.2554 57.5201 23.2164C57.501 23.1994 57.4777 23.1854 57.4565 23.1684L57.4458 23.1862C57.5103 23.2456 57.5731 23.3038 57.6355 23.3602C57.6592 23.3812 57.6854 23.3992 57.7135 23.4137C57.7176 23.4151 57.7213 23.4175 57.7244 23.4204C57.7275 23.4234 57.73 23.427 57.7316 23.431C57.7332 23.435 57.7341 23.4393 57.7339 23.4436C57.7338 23.4479 57.7328 23.4522 57.7309 23.4561C57.7273 23.4728 57.7198 23.4885 57.7092 23.5019C57.6985 23.5154 57.6849 23.5261 57.6694 23.5335C57.6539 23.5408 57.637 23.5445 57.6198 23.5443C57.6027 23.544 57.5858 23.5398 57.5706 23.532C57.5238 23.5153 57.4806 23.4898 57.4433 23.457C57.4115 23.4281 57.3763 23.4039 57.3428 23.3768C57.3152 23.3573 57.2818 23.3476 57.2481 23.3492L57.2444 23.3708C57.2469 23.3729 57.2477 23.3746 57.249 23.3746C57.2914 23.3768 57.3315 23.3942 57.3619 23.4238C57.3975 23.4539 57.4339 23.4828 57.47 23.5125C57.4849 23.5248 57.4768 23.5693 57.4573 23.5796C57.4378 23.5932 57.4143 23.6003 57.3904 23.5995C57.3665 23.5987 57.3436 23.5903 57.3249 23.5753C57.3116 23.5649 57.2974 23.5557 57.2825 23.5477C57.2761 23.5443 57.2668 23.54 57.2618 23.5426C57.2439 23.552 57.2342 23.5426 57.2248 23.5299C57.1943 23.4908 57.1645 23.4514 57.1332 23.4132C57.1264 23.4046 57.1165 23.399 57.1056 23.3975C57.0826 23.3957 57.0595 23.3951 57.0365 23.3958Z" fill="#CC4400"/>
<path d="M60.8903 21.0948L59.0554 21.7096V23.225L61.8805 23.8249L63.3661 27.9201H66.3375L60.3944 11.54H57.4233L60.8903 21.0948Z" fill="#CC4400"/>
<path d="M59.0495 21.7092C58.8505 21.7754 58.6676 21.8827 58.4733 21.9557L58.3037 22.0181L58.2773 22.0278L58.2964 22.0571C58.3841 22.1943 58.4553 22.3414 58.5086 22.4953C58.5531 22.6141 58.6002 22.7325 58.6426 22.8517C58.6569 22.8991 58.6686 22.9472 58.6778 22.9959L58.5675 23.0167C58.5773 23.0426 58.5849 23.0672 58.5956 23.0897C58.6297 23.163 58.6787 23.2284 58.7393 23.2819C58.7428 23.2847 58.7459 23.2878 58.7487 23.2912C58.7809 23.3243 58.7805 23.3239 58.8225 23.306C58.8934 23.2755 58.9642 23.2462 59.0346 23.2165C59.0395 23.2147 59.0444 23.2132 59.0495 23.2123V21.7092Z" fill="#CC4400"/>
<path d="M58.1937 22.1139C58.1957 22.1256 58.1984 22.1373 58.2018 22.1487C58.2204 22.2059 58.2408 22.2632 58.259 22.3184C58.3091 22.4779 58.3439 22.6404 58.3808 22.8037C58.3818 22.8091 58.3808 22.8147 58.3779 22.8194C58.332 22.861 58.2859 22.9023 58.2395 22.9433C58.2289 22.9531 58.2204 22.9526 58.2098 22.9433C58.1721 22.9008 58.1339 22.8627 58.0949 22.8237C58.0774 22.8056 58.0582 22.7893 58.0376 22.7748C57.9043 22.6845 57.7703 22.5954 57.6367 22.5054C57.5807 22.4682 57.5251 22.4304 57.4691 22.3935C57.4458 22.3782 57.4211 22.3646 57.3966 22.351C57.3627 22.3302 57.3243 22.3181 57.2847 22.3156C57.245 22.313 57.2054 22.3203 57.1691 22.3366C57.1078 22.3649 57.0477 22.3946 56.9889 22.4257C56.9192 22.4663 56.8457 22.4999 56.7695 22.5262C56.7588 22.5305 56.7473 22.5319 56.7359 22.5306C56.7245 22.5293 56.7136 22.5251 56.7042 22.5186C56.6947 22.5121 56.6871 22.5033 56.6818 22.4931C56.6766 22.4829 56.6739 22.4716 56.6741 22.4601C56.6748 22.447 56.6804 22.4348 56.6898 22.4257C56.7113 22.4065 56.7346 22.3895 56.7593 22.3748C56.797 22.3526 56.8284 22.3212 56.8505 22.2836C56.8671 22.2573 56.8832 22.2306 56.9002 22.2047C56.9218 22.1714 56.9554 22.1477 56.9939 22.1385C57.0849 22.1159 57.1732 22.0833 57.257 22.0413C57.314 22.0153 57.3784 22.01 57.439 22.0265C57.5485 22.0498 57.6574 22.0753 57.7669 22.0999C57.8229 22.1126 57.8798 22.1237 57.9366 22.1389C58.0226 22.161 58.1136 22.1521 58.1937 22.1139Z" fill="#CC4400"/>
<path d="M56.8576 23.2399C56.9001 23.2157 56.9501 23.2 56.9896 23.2441C57.0013 23.2556 57.0105 23.2694 57.0167 23.2847C57.0228 23.3 57.0257 23.3163 57.0252 23.3327C57.0246 23.3492 57.0207 23.3653 57.0137 23.3801C57.0065 23.395 56.9965 23.4081 56.9841 23.4189H57.0244C57.06 23.4185 57.095 23.4287 57.1249 23.4482C57.1315 23.4528 57.1373 23.4583 57.1423 23.4647C57.1673 23.4965 57.1915 23.5288 57.2174 23.5623C57.1965 23.5759 57.1731 23.585 57.1486 23.5891C57.124 23.5932 57.099 23.5922 57.0748 23.586C57.0672 23.586 57.0608 23.5742 57.0553 23.5665C57.0416 23.5455 57.0239 23.5273 57.0031 23.5132C56.9823 23.4989 56.959 23.489 56.9344 23.4838L56.8996 23.4762C56.875 23.4715 56.8529 23.4582 56.8373 23.4385C56.8217 23.4189 56.8137 23.3943 56.8148 23.3693C56.8148 23.3578 56.8148 23.346 56.8118 23.3294C56.7961 23.3408 56.7838 23.3494 56.7719 23.3587C56.7667 23.3644 56.7598 23.3684 56.7522 23.37C56.7446 23.3717 56.7366 23.371 56.7295 23.368C56.7015 23.3571 56.6742 23.3446 56.6476 23.3306C56.643 23.3267 56.6393 23.3218 56.6365 23.3163C56.6339 23.3109 56.6323 23.3049 56.6319 23.2988C56.6273 23.267 56.6251 23.2348 56.6222 23.2012C56.617 23.2027 56.6119 23.2044 56.6069 23.2063C56.5856 23.215 56.5625 23.2181 56.5396 23.2155C56.5168 23.2128 56.495 23.2044 56.4762 23.1911C56.4725 23.1889 56.4693 23.1859 56.4669 23.1823C56.4646 23.1787 56.4631 23.1746 56.4627 23.1703C56.4593 23.1376 56.458 23.1045 56.4563 23.0719L56.4644 23.0659C56.4936 23.0829 56.5246 23.0982 56.5526 23.1173C56.5806 23.1364 56.6069 23.1597 56.6374 23.183C56.6401 23.1806 56.6423 23.1779 56.6442 23.175C56.6524 23.1575 56.6654 23.1427 56.6817 23.1323C56.698 23.1219 56.717 23.1164 56.7363 23.1164C56.7507 23.1142 56.7654 23.1163 56.7786 23.1226C56.7918 23.1289 56.8028 23.139 56.8101 23.1517C56.8288 23.1784 56.8415 23.2085 56.8576 23.2399Z" fill="#CC4400"/>
</g>
<defs>
<clipPath id="clip0_117_1791">
<rect width="39.69" height="39.69" fill="white" transform="translate(0 0.199951)"/>
</clipPath>
<clipPath id="clip1_117_1791">
<rect width="140.49" height="16.38" fill="white" transform="translate(48.5098 11.54)"/>
</clipPath>
</defs>
</svg>
